<svg aria-hidden="true" style="width:0;height:0;position:absolute;overflow:hidden" xmlns="http://www.w3.org/2000/svg"><defs><symbol id="icon-search" viewBox="0 0 32 32"><path d="M13.44 1.92C7.425 1.92 2.56 6.785 2.56 12.8s4.865 10.88 10.88 10.88c2.147 0 4.134-.63 5.82-1.7l7.86 7.86 2.72-2.72-7.76-7.74c1.395-1.83 2.24-4.097 2.24-6.58 0-6.015-4.865-10.88-10.88-10.88zm0 2.56c4.608 0 8.32 3.712 8.32 8.32s-3.712 8.32-8.32 8.32-8.32-3.712-8.32-8.32 3.712-8.32 8.32-8.32z"/></symbol><symbol id="icon-spinner" viewBox="0 0 32 32"><path fill="#b72f2b" style="fill:var(--color1,#b72f2b)" opacity=".067" d="M16 6.08c.442 0 .8.413.8.922v1.997c0 .509-.358.922-.8.922s-.8-.413-.8-.922V7.002c0-.509.358-.922.8-.922z"/><path fill="#b72f2b" style="fill:var(--color1,#b72f2b)" opacity=".133" d="M20.035 6.938c.404.18.563.702.356 1.167l-.812 1.824c-.207.465-.702.696-1.106.517s-.563-.702-.356-1.167l.812-1.824c.207-.465.702-.696 1.106-.517z"/><path fill="#b72f2b" style="fill:var(--color1,#b72f2b)" opacity=".2" d="M23.372 9.362c.296.328.229.871-.15 1.211l-1.484 1.336c-.378.341-.925.351-1.22.022s-.229-.871.15-1.211l1.484-1.336c.378-.341.925-.351 1.22-.022z"/><path fill="#b72f2b" style="fill:var(--color1,#b72f2b)" opacity=".267" d="M25.434 12.935c.137.42-.145.888-.629 1.046l-1.899.617c-.484.157-.987-.056-1.124-.476s.145-.888.629-1.046l1.899-.617c.484-.157.987.056 1.124.476z"/><path fill="#b72f2b" style="fill:var(--color1,#b72f2b)" opacity=".333" d="M25.866 17.037c-.046.439-.494.753-1 .699l-1.986-.209c-.506-.053-.879-.453-.833-.892s.494-.752 1-.699l1.986.209c.506.053.879.453.833.892z"/><path fill="#b72f2b" style="fill:var(--color1,#b72f2b)" opacity=".4" d="M24.591 20.96c-.221.383-.757.486-1.198.232l-1.729-.998c-.441-.255-.619-.771-.398-1.154s.757-.486 1.198-.232l1.729.998c.441.255.619.771.398 1.154z"/><path fill="#b72f2b" style="fill:var(--color1,#b72f2b)" opacity=".467" d="M21.831 24.025c-.357.26-.89.136-1.189-.275l-1.174-1.615c-.299-.412-.252-.956.105-1.216s.89-.136 1.189.275l1.174 1.615c.299.412.252.956-.105 1.216z"/><path fill="#b72f2b" style="fill:var(--color1,#b72f2b)" opacity=".533" d="M18.062 25.703c-.432.092-.868-.237-.974-.735l-.415-1.953c-.106-.498.159-.976.591-1.068s.868.237.974.735l.415 1.953c.106.498-.159.976-.591 1.068z"/><path fill="#b72f2b" style="fill:var(--color1,#b72f2b)" opacity=".6" d="M13.938 25.703c-.432-.092-.697-.57-.591-1.068l.415-1.953c.106-.498.542-.827.974-.735s.697.57.591 1.068l-.415 1.953c-.106.498-.542.827-.974.735z"/><path fill="#b72f2b" style="fill:var(--color1,#b72f2b)" opacity=".667" d="M10.169 24.025c-.357-.26-.405-.804-.105-1.216l1.174-1.615c.299-.412.831-.535 1.189-.275s.405.804.105 1.216l-1.174 1.615c-.299.412-.831.535-1.189.275z"/><path fill="#b72f2b" style="fill:var(--color1,#b72f2b)" opacity=".733" d="M7.409 20.96c-.221-.383-.043-.899.398-1.154l1.729-.998c.441-.255.977-.151 1.198.232s.043.899-.398 1.154l-1.729.998c-.441.255-.977.151-1.198-.232z"/><path fill="#b72f2b" style="fill:var(--color1,#b72f2b)" opacity=".8" d="M6.134 17.037c-.046-.439.327-.839.833-.892l1.986-.209c.506-.053.954.26 1 .699s-.327.839-.833.892l-1.986.209c-.506.053-.954-.26-1-.699z"/><path fill="#b72f2b" style="fill:var(--color1,#b72f2b)" opacity=".867" d="M6.566 12.935c.137-.42.64-.633 1.124-.476l1.899.617c.484.157.766.625.629 1.046s-.64.633-1.124.476l-1.899-.617c-.484-.157-.766-.625-.629-1.046z"/><path fill="#b72f2b" style="fill:var(--color1,#b72f2b)" opacity=".933" d="M8.628 9.362c.296-.328.842-.318 1.22.022l1.484 1.336c.378.341.445.883.15 1.211s-.842.318-1.22-.022l-1.484-1.336c-.378-.341-.445-.883-.15-1.211z"/><path fill="#b72f2b" style="fill:var(--color1,#b72f2b)" d="M11.965 6.938c.404-.18.899.052 1.106.517l.812 1.824c.207.465.048.988-.356 1.167s-.899-.052-1.106-.517l-.812-1.824c-.207-.465-.048-.988.356-1.167z"/></symbol></defs></svg>